<?xml version="1.0" encoding="UTF-8" standalone="no"?>
<svg
   width="169"
   height="25"
   viewBox="0 0 169 25"
   fill="none"
   version="1.1"
   id="svg7"
   sodipodi:docname="new-logo-huggy.svg"
   inkscape:export-filename="new-logo-huggy.png"
   inkscape:export-xdpi="6000"
   inkscape:export-ydpi="6000"
   inkscape:version="1.3.2 (091e20e, 2023-11-25)"
   xmlns:inkscape="http://www.inkscape.org/namespaces/inkscape"
   xmlns:sodipodi="http://sodipodi.sourceforge.net/DTD/sodipodi-0.dtd"
   xmlns="http://www.w3.org/2000/svg"
   xmlns:svg="http://www.w3.org/2000/svg">
  <sodipodi:namedview
     id="namedview7"
     pagecolor="#ffffff"
     bordercolor="#666666"
     borderopacity="1.0"
     inkscape:showpageshadow="2"
     inkscape:pageopacity="0.0"
     inkscape:pagecheckerboard="0"
     inkscape:deskcolor="#d1d1d1"
     inkscape:zoom="5.5798817"
     inkscape:cx="84.5"
     inkscape:cy="12.545069"
     inkscape:window-width="1504"
     inkscape:window-height="449"
     inkscape:window-x="0"
     inkscape:window-y="25"
     inkscape:window-maximized="0"
     inkscape:current-layer="svg7" />
  <path
     fill-rule="evenodd"
     clip-rule="evenodd"
     d="M2.34238 0.555664H11.7553C13.0566 0.555664 14.0977 1.59672 14.0977 2.89805C14.0977 4.19937 13.0566 5.24043 11.7553 5.24043H2.34238C1.04106 5.24043 0 4.19937 0 2.89805C0 1.59672 1.04106 0.555664 2.34238 0.555664ZM7.02756 9.96845C5.72624 9.96845 4.68518 11.0095 4.68518 12.3108C4.68518 13.6122 5.72624 14.6532 7.02756 14.6532C8.32889 14.6532 9.36995 13.6122 9.36995 12.3108C9.41332 11.0095 8.32889 9.96845 7.02756 9.96845ZM16.4408 14.6532H25.8537C27.155 14.6532 28.1961 13.6122 28.1961 12.3108C28.1961 11.0095 27.155 9.96845 25.8537 9.96845H16.4408C15.1395 9.96845 14.0984 11.0095 14.0984 12.3108C14.0984 13.6122 15.1395 14.6532 16.4408 14.6532ZM32.8804 12.3108C32.8804 11.0095 33.9215 9.96845 35.2228 9.96845C36.5241 9.96845 37.5652 11.0095 37.5652 12.3108C37.5652 13.6122 36.5241 14.6532 35.2228 14.6532C33.9215 14.6532 32.8804 13.6122 32.8804 12.3108ZM44.5917 9.96845C43.2904 9.96845 42.2493 11.0095 42.2493 12.3108C42.2493 13.6122 43.2904 14.6532 44.5917 14.6532C45.893 14.6532 46.9341 13.6122 46.9341 12.3108C46.9775 11.0095 45.893 9.96845 44.5917 9.96845ZM14.0984 21.6806C14.0984 20.3793 15.1395 19.3382 16.4408 19.3382C17.7421 19.3382 18.7832 20.3793 18.7832 21.6806C18.7832 22.9819 17.7421 24.023 16.4408 24.023C15.1395 24.023 14.0984 22.9819 14.0984 21.6806ZM35.2225 19.3382H25.8096C24.5083 19.3382 23.4672 20.3793 23.4672 21.6806C23.4672 22.9819 24.5083 24.023 25.8096 24.023H35.2225C36.5238 24.023 37.5649 22.9819 37.5649 21.6806C37.5649 20.3793 36.5238 19.3382 35.2225 19.3382ZM21.1245 5.24043H30.5374C31.8387 5.24043 32.8798 4.19937 32.8798 2.89805C32.8798 1.59672 31.8387 0.555664 30.5374 0.555664H21.1245C19.8232 0.555664 18.7821 1.59672 18.7821 2.89805C18.7821 4.19937 19.8232 5.24043 21.1245 5.24043ZM39.9065 0.555664H49.3194C50.6208 0.555664 51.6618 1.59672 51.6618 2.89805C51.6618 4.19937 50.6208 5.24043 49.3194 5.24043H39.9065C38.6052 5.24043 37.5641 4.19937 37.5641 2.89805C37.5641 1.59672 38.6052 0.555664 39.9065 0.555664Z"
     fill="url(#paint0_linear)"
     id="path1" />
  <path
     d="M77.5608 21.7673H73.7436V14.0461H64.7645V21.7673H60.9473V2.98486H64.7645V10.6193H73.7436V2.98486H77.5608V21.7673Z"
     fill="#263645"
     id="path2" />
  <path
     d="M99.8563 13.3521C99.8563 15.9981 99.1189 18.1236 97.6441 19.7286C96.1692 21.3335 94.2172 22.1577 91.7881 22.1577C89.3156 22.1577 87.3202 21.3335 85.802 19.7286C84.2838 18.1236 83.5464 15.9981 83.5464 13.3521V2.98486H87.3636V13.3521C87.3636 14.9137 87.754 16.1716 88.5782 17.1259C89.4023 18.0802 90.4868 18.5574 91.8315 18.5574C93.0894 18.5574 94.1305 18.0802 94.9113 17.1259C95.6921 16.1716 96.0825 14.9137 96.0825 13.3521V2.98486H99.8997V13.3521H99.8563Z"
     fill="#263645"
     id="path3" />
  <path
     d="M124.278 10.4459C124.365 11.0966 124.365 11.6171 124.409 12.0509C124.452 14.8704 123.628 17.2128 121.849 19.078C120.114 20.9433 117.859 21.9409 115.082 21.9843C112.263 22.0277 109.92 21.1602 107.925 19.2949C105.973 17.4297 104.975 15.1307 104.889 12.3979C104.845 9.66512 105.756 7.32274 107.621 5.37075C109.487 3.41877 111.786 2.46446 114.562 2.37771C116.644 2.33433 118.509 2.76811 120.158 3.72241C121.806 4.67672 122.977 6.02142 123.671 7.84327L120.288 9.10122C119.116 6.93234 117.208 5.89128 114.605 5.93466C112.914 5.97804 111.525 6.58532 110.398 7.79989C109.27 9.01446 108.706 10.4893 108.749 12.2678C108.793 14.0462 109.4 15.5211 110.615 16.6923C111.829 17.8635 113.304 18.4274 115.082 18.384C116.514 18.3406 117.685 17.9502 118.683 17.1694C119.68 16.3886 120.331 15.3042 120.591 13.9595L114.085 14.133L113.998 10.6628L124.278 10.4459Z"
     fill="#263645"
     id="path4" />
  <path
     d="M148.136 10.7927C148.179 11.4434 148.223 12.0073 148.223 12.3977C148.223 15.2172 147.312 17.5163 145.533 19.3815C143.755 21.2467 141.456 22.1576 138.68 22.1576C135.86 22.1576 133.518 21.2033 131.609 19.3381C129.7 17.4729 128.746 15.1305 128.746 12.3543C128.746 9.62155 129.7 7.27917 131.609 5.41394C133.518 3.50533 135.86 2.55103 138.593 2.55103C140.675 2.55103 142.54 3.02818 144.145 4.02586C145.793 4.98016 146.921 6.41162 147.572 8.23347L144.145 9.44804C143.017 7.27917 141.152 6.15135 138.549 6.15135C136.858 6.15135 135.47 6.75864 134.298 7.92983C133.127 9.1444 132.563 10.6192 132.563 12.3543C132.563 14.1328 133.171 15.6076 134.342 16.8222C135.556 18.0368 137.031 18.6007 138.766 18.6007C140.198 18.6007 141.412 18.2103 142.41 17.4295C143.408 16.6487 144.102 15.6076 144.405 14.2629H137.812V10.7927H148.136Z"
     fill="#263645"
     id="path5" />
  <path
     d="M161.453 21.7673H157.636V15.8246L150.218 2.98486H154.426L159.544 11.8339L164.62 2.98486H169.001L161.453 15.7378V21.7673Z"
     fill="#263645"
     id="path6" />
  <defs
     id="defs7">
    <linearGradient
       id="paint0_linear"
       x1="6.93349"
       y1="5.24043"
       x2="44.4455"
       y2="5.24043"
       gradientUnits="userSpaceOnUse">
      <stop
         stop-color="#FF0068"
         id="stop6" />
      <stop
         offset="1"
         stop-color="#8905C9"
         id="stop7" />
    </linearGradient>
  </defs>
</svg>
